# xmcd CD database file
#
# Track frame offsets:
#	150
#	15011
#	32383
#	47281
#	60023
#	70994
#	82748
#	98655
#	110736
#	124252
#	136458
#	150730
#	166690
#	179781
#	188653
#	202211
#	215724
#	227682
#	241336
#	250364
#	264886
#	280160
#	298778
#	310984
#
# Disc length: 4285 seconds
#
# Revision: 1
# Processed by: cddbd v1.5.1PL0 Copyright (c) Steve Scherf et al.
# Submitted via: CDex 1.51
#
DISCID=4710bb18
DTITLE=Various Artist - 106 Wunschkonzert
DYEAR=1900
DGENRE=Deutsche Oldies
TTITLE0=Stefanie Hertel and Stefan Mross - Zillertaler Hochzeitsmarsch
TTITLE1=Angelika Milster - Erinnerung (Memories) aus "Cats"
TTITLE2=Montanara Symphonie Orchester - Sierra Madre
TTITLE3=Katja Ebstein - Theater
TTITLE4=Chor der guten Laune - So ein Tag, so wunderschön wie heute
TTITLE5=Slavko Avsenik u. seine original Oberkrainer - Trompetenecho
TTITLE6=Franzl Lang - Das Kufsteiner Lied
TTITLE7=Maria Hellwig - Treue Bergvagabunden
TTITLE8=Dirk Schiefen - Lili Marlen
TTITLE9=Gitte - Ich will 'nen Cowboy als Mann
TTITLE10=Kirmesmusikanten - Mit Musik durchs Leben
TTITLE11=Franzl Lang - Der Königsjodler
TTITLE12=Lolita - Seemann, laß' das Träumen 
TTITLE13=Slavko Avsenik u. seine original Oberkrainer - Es ist so schön ein Musikant zu sein
TTITLE14=Gitti and Erika - Aus Böhmen kommt die Musik
TTITLE15=Stefanie Hertel - Das Schwalbenlied
TTITLE16=Marianne and Michael - Drei weiße Birken
TTITLE17=Astrid Harzbecker - Das Rennsteiglied
TTITLE18=Dagmar Koller - Heut' kommen d' Engerl auf Urlaub nach Wien
TTITLE19=Alpentrio Tirol - Mariandl
TTITLE20=Die drei Bässe - La Montanara
TTITLE21=Eberhard Hertel - S' ist Feierobnd
TTITLE22=Teddy Parker - S' Frauenkäferl
TTITLE23=Neue Böhmische Blasmusik - Rosamunde
EXTD=
EXTT0=
EXTT1=
EXTT2=
EXTT3=
EXTT4=
EXTT5=
EXTT6=
EXTT7=
EXTT8=
EXTT9=
EXTT10=
EXTT11=
EXTT12=
EXTT13=
EXTT14=
EXTT15=
EXTT16=
EXTT17=
EXTT18=
EXTT19=
EXTT20=
EXTT21=
EXTT22=
EXTT23=
PLAYORDER=
